<svg width="24" height="24" viewBox="0 0 24 24" fill="none" xmlns="http://www.w3.org/2000/svg">
<path d="M7.00001 21L2.70001 16.7C1.70001 15.7 1.70001 14.2 2.70001 13.3L12.3 3.70001C13.3 2.70001 14.8 2.70001 15.7 3.70001L21.3 9.30001C22.3 10.3 22.3 11.8 21.3 12.7L13 21" fill="white"/>
<path d="M7.00001 21L2.70001 16.7C1.70001 15.7 1.70001 14.2 2.70001 13.3L12.3 3.70001C13.3 2.70001 14.8 2.70001 15.7 3.70001L21.3 9.30001C22.3 10.3 22.3 11.8 21.3 12.7L13 21" stroke="black" stroke-linecap="round" stroke-linejoin="round"/>
<path d="M22 21H7" stroke="black" stroke-linecap="round" stroke-linejoin="round"/>
<path d="M5 11L14 20" stroke="black" stroke-linecap="round" stroke-linejoin="round"/>
</svg>
